<svg xml:space="preserve" style="enable-background:new 0 0 1655.37 280.91;" viewBox="0 0 1655.37 280.91" y="0px" x="0px" xmlns:xlink="http://www.w3.org/1999/xlink" xmlns="http://www.w3.org/2000/svg" id="Layer_1" version="1.1">
<style type="text/css">
	.st0{fill:#45C2CC;}
	.st1{filter:url(#Adobe_OpacityMaskFilter);}
	.st2{fill:#FFFFFF;}
	.st3{mask:url(#SVGID_1_);fill:#45C2CC;}
	.st4{filter:url(#Adobe_OpacityMaskFilter_00000053519886104993090920000001288578963414048945_);}
	.st5{mask:url(#SVGID_00000027597688076101589580000000482689929590839454_);fill:#FFFFFF;}
	.st6{fill:#241B11;}
	.st7{filter:url(#Adobe_OpacityMaskFilter_00000102519728803353563630000018414478907368077193_);}
	.st8{mask:url(#SVGID_00000044141077198128336150000012142176963221048495_);fill:#241B11;}
	.st9{fill:#231F20;}
	.st10{filter:url(#Adobe_OpacityMaskFilter_00000139288531820167831410000016895388409894396043_);}
	.st11{mask:url(#SVGID_00000034805431092498381140000004455005660350810766_);fill:#FFFFFF;}
	.st12{filter:url(#Adobe_OpacityMaskFilter_00000021079537023753654470000001108951042507847069_);}
	.st13{mask:url(#SVGID_00000101791509575466516060000000349661773949557657_);fill:#231F20;}
</style>
<g>
	<path d="M956.4,43.38v195.23c0,23.96,19.43,43.39,43.38,43.39h154.26v-42.18h-79.54c-11.99,0-21.69-9.71-21.69-21.7
		v-55.43h81.94v-43.38h-81.94V63.87c0-11.98,9.71-21.69,21.69-21.69h79.54V0H999.78C975.83,0,956.4,19.43,956.4,43.38z
		 M1207.07,43.38v195.23c0,23.96,19.42,43.39,43.37,43.39h154.26v-42.18h-79.54c-11.97,0-21.7-9.71-21.7-21.7v-55.43h81.95v-43.38
		h-81.95V63.87c0-11.98,9.73-21.69,21.7-21.69h79.54V0h-154.26C1226.49,0,1207.07,19.43,1207.07,43.38z M1575.83,42.18h79.54V0
		h-154.25c-23.96,0-43.38,19.43-43.38,43.38v237.64h96.41V162.69h81.94v-43.38h-81.94V63.87
		C1554.14,51.89,1563.86,42.18,1575.83,42.18z M898.44,85.31C898.44,32.1,858.04,0,810.54,0H667.18v282h86.06V34.31h15.45
		c23.03,0,40.22,20.23,40.22,52.33c0,33.76-17.51,56.94-42.03,56.94h-8.8L820.35,282H928.8l-81.94-127.75
		C880.32,144.06,898.44,116.97,898.44,85.31z" class="st6"></path>
	<g>
		<defs>
			<filter height="198.29" width="466.16" y="0" x="42.12" filterUnits="userSpaceOnUse" id="Adobe_OpacityMaskFilter">
				
					<feColorMatrix result="source" color-interpolation-filters="sRGB" values="-1 0 0 0 1  0 -1 0 0 1  0 0 -1 0 1  0 0 0 1 0" type="matrix"></feColorMatrix>
				<feFlood result="back" style="flood-color:white;flood-opacity:1"></feFlood>
				<feBlend mode="normal" in2="back" in="source"></feBlend>
			</filter>
		</defs>
		<mask id="SVGID_1_" height="198.29" width="466.16" y="0" x="42.12" maskUnits="userSpaceOnUse">
			<g class="st1">
				<path d="M451.58,176.46L316.04,40.92c-11.78-11.79-30.9-11.79-42.69,0l-45.39,45.53
					c9.12,1.73,18.32,5.96,25.38,13.02l77.05,77.05L451.58,176.46z" class="st2"></path>
			</g>
		</mask>
		<path d="M115.73,198.29l76.01-76.01c14.36-14.36,37.64-14.36,51.99,0l76.01,76.01
			h188.55L334.6,24.6c-32.81-32.8-86-32.8-118.8,0L42.12,198.29H115.73z" style="mask:url(#SVGID_1_);fill:#241B11;"></path>
		<path d="M521.36,282c16.04,0,29.06-13.01,29.06-29.05l0,0c0-16.04-13.01-29.06-29.06-29.06H29.05
			C13.01,223.89,0,236.9,0,252.95l0,0C0,268.99,13.01,282,29.05,282H521.36z" class="st9"></path>
	</g>
</g>
</svg>
