<svg width="87.4" height="82.701" viewBox="0 0 87.4 82.701" xmlns="http://www.w3.org/2000/svg"><g id="svgGroup" stroke-linecap="round" fill-rule="evenodd" font-size="9pt" stroke="#00000000" stroke-width="0.25mm" fill="#00000000" style="stroke:#00000000;stroke-width:0.25mm;fill:#00000000"><path d="M 73.1 3.9 L 75.3 2.4 A 26.792 26.792 0 0 1 79.148 0.852 Q 81.296 0.187 83.294 0.041 A 15.22 15.22 0 0 1 84.4 0 Q 86.622 0 87.198 0.549 A 0.604 0.604 0 0 1 87.4 1 A 0.941 0.941 0 0 1 87.284 1.421 Q 86.976 2.029 85.85 2.9 Q 84.3 4.1 82.55 5.1 Q 80.8 6.1 78.75 7.2 Q 76.7 8.3 76.5 8.4 A 157.678 157.678 0 0 0 57.927 21.383 A 201.304 201.304 0 0 0 45.3 32.5 Q 44.994 40.769 44.922 45.873 A 202.763 202.763 0 0 0 44.9 48.7 A 181.678 181.678 0 0 0 45.052 56.455 Q 45.705 71.652 49.167 74.055 A 2.666 2.666 0 0 0 49.6 74.3 Q 50.4 74.6 50.4 75.5 Q 50.4 77.4 46.7 79.2 Q 43.854 80.585 42.073 80.905 A 5.55 5.55 0 0 1 41.1 81 A 4.673 4.673 0 0 1 40.141 80.91 Q 39.609 80.798 39.232 80.548 A 1.974 1.974 0 0 1 38.4 79.3 Q 36.322 71.261 36.121 57.754 A 198.705 198.705 0 0 1 36.1 54.8 Q 36.1 48.1 36.4 41.5 Q 31.4 46.8 26.95 52.2 Q 22.581 57.503 20.573 60.202 A 64.538 64.538 0 0 0 20.5 60.3 L 18.6 63.1 Q 6.452 79.189 2.254 82.071 A 2.892 2.892 0 0 1 0.8 82.7 Q 0.05 82.7 0.003 81.471 A 4.453 4.453 0 0 1 0 81.3 A 15.459 15.459 0 0 1 0.483 77.573 Q 0.894 75.919 1.654 74.146 A 28.959 28.959 0 0 1 2.2 72.95 Q 4.4 68.4 7.35 64.8 A 147.606 147.606 0 0 1 9.457 62.283 Q 10.291 61.311 11.052 60.465 A 69.858 69.858 0 0 1 12.5 58.9 A 101.943 101.943 0 0 1 13.272 58.101 Q 14.448 56.899 15.06 56.372 A 5.003 5.003 0 0 1 15.4 56.1 Q 23.4 49.4 36.7 36.8 A 559.371 559.371 0 0 1 37.466 27.439 Q 38.521 15.864 39.694 9.825 A 47.947 47.947 0 0 1 40.2 7.5 Q 41.1 4.5 43.15 2.25 A 14.167 14.167 0 0 1 44.016 1.374 Q 45.506 0 46.6 0 Q 47.517 0 47.67 1.113 A 3.606 3.606 0 0 1 47.7 1.6 Q 47.7 2.008 47.654 2.555 A 20.897 20.897 0 0 1 47.6 3.1 A 485.077 485.077 0 0 0 46.17 18.561 A 575.517 575.517 0 0 0 45.5 28.4 A 661.85 661.85 0 0 1 52.885 21.332 Q 58.694 15.863 63.35 11.8 Q 69.31 6.6 71.974 4.664 A 17.232 17.232 0 0 1 73.1 3.9 Z" vector-effect="non-scaling-stroke"/></g></svg>