<?xml version="1.0" encoding="UTF-8" standalone="no" ?>
<!DOCTYPE svg PUBLIC "-//W3C//DTD SVG 1.1//EN" "http://www.w3.org/Graphics/SVG/1.1/DTD/svg11.dtd">
<svg xmlns="http://www.w3.org/2000/svg" xmlns:xlink="http://www.w3.org/1999/xlink" version="1.1" width="1080" height="1080" viewBox="0 0 1080 1080" xml:space="preserve">
<desc>Created with Fabric.js 5.2.4</desc>
<defs>
</defs>
<rect x="0" y="0" width="100%" height="100%" fill="transparent"></rect>
<g transform="matrix(Infinity NaN NaN Infinity 0 0)" id="e9299f18-2951-4f8d-b3bd-fff36891bc4b"  >
</g>
<g transform="matrix(1 0 0 1 540 540)" id="328006b9-d633-41fc-9817-958923f6380a"  >
<rect style="stroke: none; stroke-width: 1; stroke-dasharray: none; stroke-linecap: butt; stroke-dashoffset: 0; stroke-linejoin: miter; stroke-miterlimit: 4; fill: rgb(255,255,255); fill-rule: nonzero; opacity: 1; visibility: hidden;" vector-effect="non-scaling-stroke"  x="-540" y="-540" rx="0" ry="0" width="1080" height="1080" />
</g>
<g transform="matrix(2.13 0 0 2.13 539.99 508.22)"  >
<path style="stroke: none; stroke-width: 1; stroke-dasharray: none; stroke-linecap: butt; stroke-dashoffset: 0; stroke-linejoin: miter; stroke-miterlimit: 4; fill: rgb(255,255,255); fill-rule: nonzero; opacity: 1;" vector-effect="non-scaling-stroke"  transform=" translate(-275.2, -99.14)" d="M 115.73 198.29 L 191.74 122.27999999999999 C 206.10000000000002 107.91999999999999 229.38 107.91999999999999 243.73000000000002 122.27999999999999 L 319.74 198.29 L 508.29 198.29 L 334.6 24.6 C 301.79 -8.199999999999996 248.60000000000002 -8.199999999999996 215.8 24.6 L 42.12 198.29 L 115.73 198.29 z" stroke-linecap="round" />
</g>
<g transform="matrix(2.13 0 0 2.13 540 836.23)"  >
<path style="stroke: none; stroke-width: 1; stroke-dasharray: none; stroke-linecap: butt; stroke-dashoffset: 0; stroke-linejoin: miter; stroke-miterlimit: 4; fill: rgb(255,255,255); fill-rule: nonzero; opacity: 1;" vector-effect="non-scaling-stroke"  transform=" translate(-275.21, -252.94)" d="M 521.36 282 C 537.4 282 550.42 268.99 550.42 252.95 L 550.42 252.95 C 550.42 236.91 537.41 223.89 521.36 223.89 L 29.05 223.89 C 13.01 223.89 0 236.9 0 252.95 L 0 252.95 C 0 268.99 13.01 282 29.05 282 L 521.36 282 z" stroke-linecap="round" />
</g>
</svg>